<svg width="28" height="23" viewBox="0 0 28 23" fill="none" xmlns="http://www.w3.org/2000/svg">
<path d="M15.8755 2.47798C12.0696 3.73475 8.26275 4.98869 4.4566 6.24483C4.38421 6.23291 4.31849 6.20136 4.24319 6.20136H1.4236C0.646667 6.20136 0 6.86 0 7.65133V12.7812C0 13.5725 0.646667 14.2312 1.4236 14.2312H1.87805L4.95122 23H9.48817L6.74893 14.6736C9.79035 15.316 12.8317 15.9587 15.873 16.6017V16.6299C15.873 18.0239 17.035 19.136 18.4365 19.136C19.8381 19.136 21 18.0239 21 16.6299V2.50867C21 1.11464 19.8381 0 18.4417 0C17.0454 0 15.8928 1.09865 15.8755 2.47798ZM18.4365 1.30932C19.1784 1.30932 19.7145 1.84962 19.7145 2.50867V16.6299C19.7145 17.2889 19.1784 17.8267 18.4365 17.8267C17.6946 17.8267 17.1585 17.2889 17.1585 16.6299V2.50867C17.1585 1.84962 17.6946 1.30932 18.4365 1.30932ZM15.873 3.85379V15.2643C12.476 14.5464 9.07895 13.8286 5.68185 13.1111V7.21659C9.07891 6.09565 12.4761 4.97523 15.873 3.85379ZM1.4236 7.51067H4.24319C4.33019 7.51067 4.38128 7.5627 4.38128 7.65132V9.56159H1.28551V7.65132C1.28551 7.56271 1.3366 7.51067 1.4236 7.51067ZM1.28551 10.8709H4.38128V12.7812C4.38128 12.8698 4.33019 12.9218 4.24319 12.9218H1.4236C1.3366 12.9218 1.28551 12.8698 1.28551 12.7812V10.8709ZM4.44907 14.1877C4.72935 14.2469 5.00989 14.3049 5.29017 14.3641L7.7005 21.6907H5.8576L3.24139 14.2312H4.24319C4.31594 14.2312 4.37902 14.1988 4.44907 14.1877Z" fill="#8E8CF7"/>
<path d="M23.0378 8.07349C23.0378 8.51003 23.0378 8.94657 23.0378 9.38311C24.6291 9.38311 26.2204 9.38311 27.8117 9.38311C27.8117 8.94657 27.8117 8.51003 27.8117 8.07349C26.2204 8.07349 24.6291 8.07349 23.0378 8.07349Z" fill="#8E8CF7"/>
<path d="M23.5923 11.1284C23.3949 11.5181 23.1974 11.9077 23 12.2973C24.4206 13.0141 25.8367 13.7399 27.2573 14.4566C27.4547 14.067 27.6522 13.6773 27.8496 13.2877C26.429 12.5709 25.013 11.8452 23.5923 11.1284Z" fill="#8E8CF7"/>
<path d="M27.2573 3C25.8367 3.71675 24.4206 4.44252 23 5.15927C23.1974 5.54891 23.3949 5.93855 23.5923 6.32819C25.0104 5.60545 26.4316 4.88896 27.8496 4.16622C27.6522 3.77748 27.4547 3.38874 27.2573 3Z" fill="#8E8CF7"/>
</svg>
